<?xml version="1.0" encoding="utf-8"?>
<svg viewBox="240.4 196.839 83.625 53.347" xmlns="http://www.w3.org/2000/svg">
  <path fill-rule="evenodd" clip-rule="evenodd" d="M 254.138 205.888 L 252.713 205.888 C 252.258 205.888 251.87 205.984 251.611 206.271 C 251.351 206.46 251.158 206.841 251.029 207.127 C 250.897 207.508 250.833 207.888 250.77 208.271 C 250.704 208.746 250.704 209.128 250.704 209.413 L 250.704 217.986 C 250.704 219.033 250.574 219.891 250.249 220.558 C 249.927 221.224 249.538 221.797 249.02 222.178 C 248.565 222.558 247.981 222.844 247.463 223.036 C 246.879 223.225 246.361 223.322 245.909 223.322 L 245.909 223.417 C 246.31 223.417 246.765 223.492 247.269 223.575 L 247.463 223.607 C 248.047 223.702 248.565 223.988 249.02 224.369 C 249.472 224.75 249.927 225.322 250.249 226.084 C 250.574 226.846 250.704 227.895 250.704 229.132 L 250.704 237.23 C 250.704 237.61 250.704 237.991 250.77 238.373 C 250.833 238.849 250.897 239.23 251.092 239.515 C 251.222 239.897 251.481 240.182 251.806 240.374 C 252.13 240.563 252.517 240.755 253.101 240.755 L 254.202 240.755 L 254.202 250.186 L 249.602 250.186 C 248.954 250.186 248.306 249.994 247.659 249.709 C 247.011 249.423 246.361 248.947 245.779 248.376 C 245.195 247.803 244.742 246.946 244.352 245.993 C 243.966 245.042 243.834 243.897 243.834 242.564 L 243.834 231.895 C 243.834 231.036 243.707 230.37 243.448 229.895 C 243.186 229.418 242.864 229.037 242.474 228.752 C 242.084 228.465 241.698 228.275 241.307 228.179 C 240.92 228.084 240.596 228.084 240.4 228.084 L 240.4 219.033 C 240.659 219.033 240.92 219.033 241.307 218.94 C 241.698 218.844 242.084 218.749 242.409 218.463 C 242.798 218.177 243.057 217.891 243.382 217.416 C 243.707 216.939 243.77 216.366 243.77 215.606 L 243.77 204.46 C 243.77 203.127 243.966 201.983 244.289 201.029 C 244.677 200.079 245.132 199.316 245.713 198.649 C 246.297 198.076 246.879 197.6 247.593 197.315 C 248.242 197.029 248.889 196.839 249.538 196.839 L 254.138 196.839 L 254.138 205.888 Z M 310.288 205.888 L 311.714 205.888 C 312.166 205.888 312.556 205.984 312.816 206.271 C 313.075 206.46 313.27 206.841 313.398 207.127 C 313.529 207.508 313.593 207.888 313.657 208.271 C 313.723 208.746 313.723 209.128 313.723 209.413 L 313.723 217.986 C 313.723 219.033 313.852 219.891 314.175 220.558 C 314.5 221.224 314.889 221.797 315.407 222.178 C 315.861 222.558 316.443 222.844 316.962 223.036 C 317.545 223.225 318.066 223.322 318.518 223.322 L 318.518 223.417 C 318.117 223.417 317.662 223.492 317.157 223.575 L 316.962 223.607 C 316.38 223.702 315.861 223.988 315.407 224.369 C 314.955 224.75 314.5 225.322 314.175 226.084 C 313.852 226.846 313.723 227.895 313.723 229.132 L 313.723 237.23 C 313.723 237.61 313.723 237.991 313.657 238.373 C 313.593 238.849 313.529 239.23 313.334 239.515 C 313.205 239.897 312.946 240.182 312.622 240.374 C 312.298 240.563 311.908 240.755 311.325 240.755 L 310.223 240.755 L 310.223 250.186 L 314.825 250.186 C 315.473 250.186 316.12 249.994 316.768 249.709 C 317.416 249.423 318.066 248.947 318.647 248.376 C 319.23 247.803 319.684 246.946 320.072 245.993 C 320.461 245.042 320.593 243.897 320.593 242.564 L 320.593 231.895 C 320.593 231.036 320.72 230.37 320.979 229.895 C 321.238 229.418 321.563 229.037 321.952 228.752 C 322.34 228.465 322.73 228.275 323.12 228.179 C 323.506 228.084 323.831 228.084 324.025 228.084 L 324.025 219.033 C 323.765 219.033 323.506 219.033 323.12 218.94 C 322.73 218.844 322.34 218.749 322.016 218.463 C 321.629 218.177 321.37 217.891 321.045 217.416 C 320.72 216.939 320.656 216.366 320.656 215.606 L 320.656 204.46 C 320.656 203.127 320.461 201.983 320.138 201.029 C 319.75 200.079 319.295 199.316 318.711 198.649 C 318.129 198.076 317.545 197.6 316.834 197.315 C 316.184 197.029 315.536 196.839 314.889 196.839 L 310.288 196.839 L 310.288 205.888 Z M 295.953 230.524 L 269.149 198.743 L 262.773 198.743 L 262.773 206.302 L 289.58 238.082 L 284.802 243.742 L 287.98 247.506 L 293.476 240.911 L 300.731 249.376 C 301.607 250.419 303.027 250.419 303.906 249.376 L 305.506 247.481 C 306.385 246.44 306.385 244.756 305.506 243.715 L 298.342 235.224 L 303.906 228.626 L 300.731 224.862 L 295.953 230.524 Z M 301.654 206.276 L 290.977 218.932 L 284.601 211.402 L 295.278 198.743 L 301.654 198.743 L 301.654 206.276 Z M 273.45 224.621 L 279.826 232.286 L 274.847 238.082 L 279.622 243.742 L 276.447 247.506 L 270.95 240.911 L 263.696 249.405 C 262.817 250.445 261.4 250.445 260.521 249.405 L 258.921 247.506 C 258.042 246.466 258.042 244.785 258.921 243.742 L 266.085 235.224 L 260.521 228.626 L 263.696 224.862 L 268.471 230.524 L 273.45 224.621 Z" fill="#FFDF00" style=""/>
</svg>